PathFileType	4	(X/Y/Z)	C:/Users/beibeiliu/ov580/test_trc/User2\sequence.44_training_dense_left.trc
DataRate	CameraRate	NumFrames	NumMarkers	Units	OrigDataRate	OrigDataStartFrame	OrigNumFrames
120	120	19	19	mm	120	51	75
Frame#	Time	ThumbCMC			ThumbMCP			ThumbIP			ThumbTip			IndexMCP			IndexPIP			IndexTip			MiddleMCP			MiddlePIP			MiddleTip			RingMCP			RingPIP			RingTip			PinkyMCP			PinkyPIP			PinkyTip			BackHand1			BackHand2			BackHand3	
		X0	Y0	Z0	X1	Y1	Z1	X2	Y2	Z2	X3	Y3	Z3	X4	Y4	Z4	X5	Y5	Z5	X6	Y6	Z6	X7	Y7	Z7	X8	Y8	Z8	X9	Y9	Z9	X10	Y10	Z10	X11	Y11	Z11	X12	Y12	Z12	X13	Y13	Z13	X14	Y14	Z14	X15	Y15	Z15	X16	Y16	Z16	X17	Y17	Z17	X18	Y18	Z18	
50	0.416667	-206.346	56.0146	24.5067	-189.333	76.8509	7.08322	-172.571	96.2989	-13.3506	-158.283	110.748	-31.545	-224.455	79.4979	-56.1754	-220.12	87.7815	-86.9101	-210.321	95.6835	-109.536	-240.459	56.5734	-73.5143	-231.569	60.2577	-106.592	-218.168	57.1899	-135.622	-243.822	30.0141	-76.2323	-230.687	25.8831	-106.875	-207.26	23.5885	-129.637	-242.359	0.325558	-70.9545	-229.934	-6.23087	-93.2991	-212.668	-5.67108	-113.104	-258.562	20.0818	-16.0761	-261.573	12.4647	13.2629	-245.16	46.6361	6.52952	
51	0.425	-206.102	55.3732	25.1236	-185.95	74.814	8.762	-169.904	90.1132	-16.0641	-155.502	103.321	-38.3944	-223.562	74.582	-59.8688	-214.628	81.6336	-87.1955	-202.471	83.0974	-115.387	-232.323	50.2873	-74.0693	-217.773	51.5104	-102.678	-194.52	40.0189	-133.619	-233.369	25.7926	-76.7213	-214.652	20.3089	-101.603	-191.316	10.9837	-117.072	-238.556	-5.61708	-66.6749	-218.485	-9.11116	-91.599	-198.421	-9.12598	-106.46	-256.243	19.7477	-17.4929	-261.502	9.35279	13.9917	-244.937	48.1526	6.5639	
52	0.433333	-201.315	46.4257	19.5276	-176.958	56.7215	4.51977	-153.492	71.4955	-26.2765	-139.238	71.9264	-45.749	-209.342	58.8542	-63.3953	-195.872	58.8707	-89.7573	-179.236	51.9809	-115.039	-215.08	36.1339	-79.0267	-194.526	31.1982	-100.12	-166.883	16.3508	-117.971	-224.011	11.0182	-74.8943	-200.196	4.70249	-95.5645	-173.104	-9.11263	-106.254	-231.695	-11.317	-66.2952	-209.6	-18.1725	-87.5418	-188.221	-25.5514	-103.509	-250.748	17.1275	-20.2229	-262.581	10.1797	14.6335	-238.097	46.1049	2.14903	
53	0.441667	-184.292	29.2291	19.6668	-156.131	28.5276	-3.74437	-131.21	27.3707	-29.5187	-119.033	20.1719	-47.4187	-186.905	38.5961	-65.339	-169.844	31.3071	-90.3998	-154.956	20.7397	-109.142	-193.313	22.151	-77.8576	-173.053	6.43015	-100.316	-151.814	-15.0753	-113.404	-207.824	2.0601	-77.0832	-190.944	-14.0295	-94.444	-166.102	-28.9438	-102.717	-223.253	-16.9714	-66.5028	-202.064	-28.6274	-85.7292	-182.854	-39.534	-98.6612	-245.384	10.3345	-20.1987	-253.268	10.4717	9.70672	-221.952	38.6899	-1.1435	
54	0.45	-168.331	12.9126	14.6523	-143.154	1.17777	-1.43575	-117.417	-7.31504	-26.8696	-106.373	-18.6168	-45.0012	-168.617	22.6917	-66.0695	-150.403	12.7717	-91.9906	-137.282	-0.0592842	-107.749	-184.462	7.99851	-78.5473	-160.698	-6.83546	-101.925	-140.834	-28.5235	-117.308	-201.009	-10.6988	-77.4776	-182.43	-26.9064	-99.5191	-159.049	-42.2443	-107.142	-212.566	-27.694	-68.9799	-194.835	-40.2748	-86.8822	-174.168	-52.9404	-98.0189	-231.357	2.78022	-23.1809	-241.185	1.04535	9.48461	-205.772	25.7905	-0.529937	
55	0.458333	-159.074	2.39721	17.3301	-129.387	-11.4837	-0.130504	-110.443	-25.5083	-23.2648	-93.6446	-37.8279	-42.0667	-157.283	15.3587	-62.6438	-138.863	4.47369	-87.1162	-123.556	-10.57	-105.808	-173.602	6.09255	-76.312	-153.952	-5.97272	-103.791	-140.507	-26.7626	-122.274	-191.728	-10.5127	-74.1416	-175.79	-26.7798	-102.63	-156.261	-42.077	-114.71	-207.599	-31.96	-67.0598	-190.963	-41.9771	-86.0089	-171.792	-59.8919	-104.289	-217.37	-1.33633	-19.9992	-227.513	0.585233	9.22333	-196.812	20.9038	2.96301	
56	0.466667	-150.856	0.0248315	17.9631	-122.446	-16.2504	3.41228	-100.874	-31.445	-20.0313	-89.7709	-45.6586	-37.0852	-144.895	12.4298	-61.9355	-126.942	-0.0515283	-82.0256	-112.427	-16.9827	-97.9009	-166.434	6.71415	-76.616	-149.705	-5.77128	-104.481	-134.606	-24.9733	-126.769	-187.639	-9.78545	-73.1852	-173.794	-22.5248	-102.99	-152.834	-35.9992	-120.448	-203.281	-28.9125	-62.5163	-190.624	-38.8359	-86.3027	-175.418	-53.5565	-108.197	-213.773	-2.3799	-24.1523	-225.765	-0.202024	11.394	-186.15	18.4181	1.14383	
57	0.475	-151.176	-2.55818	22.6473	-124.283	-18.3145	6.01589	-104.411	-34.842	-21.3187	-93.6594	-48.0889	-38.2886	-138.212	8.51932	-60.8714	-123.586	-6.65909	-80.3897	-107.497	-27.2814	-93.5463	-164.034	7.10525	-75.0303	-148.812	-2.54128	-99.7281	-129.696	-22.6652	-125.879	-183.418	-7.57572	-76.479	-171.673	-15.9246	-101.303	-155.725	-29.3755	-119.351	-202.736	-27.6794	-63.5382	-191.87	-37.5069	-90.924	-180.556	-45.2323	-110.691	-210.415	-3.59117	-19.8247	-218.617	2.54944	11.7338	-185.813	18.0549	4.29496	
58	0.483333	-148.419	-0.482076	23.893	-124.987	-18.5448	4.51061	-104.152	-33.0557	-18.0465	-93.3564	-47.1734	-40.3876	-141.212	9.80282	-58.9607	-124.419	-5.91082	-78.4097	-107.249	-31.2273	-93.1492	-165.634	6.50006	-72.6466	-145.135	-5.1936	-102.787	-127.899	-22.1804	-124.841	-186.083	-7.75611	-73.3447	-172.627	-17.3875	-101.232	-155.821	-28.5645	-119.023	-203.315	-27.5109	-64.156	-191.134	-34.0862	-87.9867	-178.755	-42.767	-112.066	-206.791	-0.524971	-21.1557	-221.035	0.179885	12.1756	-186.957	18.5907	2.33927	
59	0.491667	-148.9	-0.134786	23.8715	-125.381	-18.3288	2.91268	-105.998	-33.0844	-21.2707	-97.3055	-47.2973	-43.3311	-138.325	9.74805	-62.1222	-119.527	-6.60456	-79.6291	-110.615	-28.1252	-90.8229	-165.881	6.19095	-76.6117	-148.284	-2.80236	-100.657	-133.27	-23.3188	-124.218	-185.598	-7.96444	-76.7573	-170.592	-16.031	-101.855	-154.565	-30.1562	-124.41	-203.362	-27.9137	-61.8576	-191.388	-35.2351	-92.3844	-179.888	-40.7789	-109.782	-213.145	-3.54078	-18.5937	-223.4	0.136075	10.4019	-184.949	20.8265	3.09594	
60	0.5	-148.348	0.360085	22.7935	-125.818	-17.0096	1.84114	-103.824	-32.3678	-26.8057	-97.8717	-44.631	-45.1152	-143.769	11.0652	-59.1465	-126.09	-4.57091	-80.7423	-110.902	-30.6647	-95.785	-164.958	9.77283	-74.3878	-152.533	-0.707658	-101.234	-132.801	-15.4452	-128.846	-188.395	-5.34666	-75.2294	-177.601	-12.9512	-102.783	-160.354	-21.424	-123.441	-203.77	-24.765	-62.1004	-197.676	-30.8843	-89.7564	-190.221	-32.8593	-112.463	-209.117	-1.37365	-21.4004	-220.638	0.74902	13.5504	-188.158	16.5699	2.08978	
61	0.508333	-147.115	-0.95654	20.5945	-123.199	-16.3161	0.556506	-103.736	-29.3379	-25.8267	-94.3831	-40.7323	-49.8716	-148.66	14.347	-61.1963	-131.061	0.187915	-85.0758	-115.091	-21.166	-99.6908	-171.077	16.7677	-75.2239	-160.676	11.3579	-106.292	-147.657	4.23912	-134.252	-198.216	2.57973	-72.438	-187.985	3.73061	-101.442	-177.556	-2.9878	-129.653	-215.214	-17.2509	-63.3759	-209.785	-17.1811	-90.801	-203.321	-16.5524	-113.379	-212.46	0.72391	-20.075	-220.087	1.8538	12.6457	-184.639	21.4538	6.98729	
62	0.516667	-151.652	-1.85503	18.9996	-127.195	-12.4779	-5.47047	-109.744	-22.186	-28.8001	-99.9992	-29.8649	-55.9002	-154.371	24.6165	-64.2887	-141.071	16.0169	-87.9136	-131.14	-5.85735	-111.466	-182.916	32.4935	-69.7827	-173.35	38.4415	-103.05	-170.649	39.8004	-132.88	-209.577	20.259	-69.6941	-204.173	28.1551	-95.0116	-198.149	29.6097	-127.707	-227.107	-3.01901	-59.7929	-228.914	1.20148	-87.7143	-229.559	7.63663	-112.719	-217.883	9.59659	-12.0563	-221.932	6.40274	16.8606	-188.568	21.6719	7.11757	
63	0.525	-159.46	2.31979	13.9837	-134.452	-4.1585	-7.30746	-115.801	-9.32351	-34.0982	-105.115	-15.0978	-59.1737	-166.026	38.1799	-63.4361	-153.696	34.7196	-92.7165	-143.653	21.9717	-118.333	-196.348	48.6949	-67.0404	-190.07	61.0858	-93.4219	-184.649	72.8941	-123.756	-221.179	32.5199	-63.4827	-219.712	45.5418	-92.0472	-219.215	52.6747	-120.329	-237.082	8.22391	-57.5723	-244.899	13.1331	-84.9118	-245.621	24.5092	-108.717	-224.453	16.7417	-12.9761	-234.163	10.3845	18.465	-194.829	28.583	5.44103	
64	0.533333	-165.294	6.93906	10.3327	-137.823	1.01595	-6.08542	-114.27	1.38578	-37.5672	-105.975	-4.5189	-58.1026	-173.193	47.2656	-64.9454	-161.263	50.5895	-93.0062	-151.336	46.9829	-116.031	-200.281	55.1833	-63.9669	-197.733	70.857	-93.4557	-195.616	85.4323	-120.432	-229.436	37.8675	-66.8581	-228.694	49.1083	-91.1221	-226.254	59.9295	-119.697	-241.816	11.9876	-61.2816	-250.306	17.8232	-85.7535	-259.189	26.6627	-103.806	-230.949	19.2215	-14.7422	-234.759	11.513	16.0959	-198.296	28.2782	4.21103	
65	0.541667	-165.02	5.19729	10.1179	-138.465	4.87859	-11.0707	-117.483	2.33555	-32.4686	-103.428	1.93505	-55.5178	-174.341	46.9599	-58.8603	-165.257	54.996	-89.6667	-156.633	59.9767	-117.198	-199.61	54.9872	-64.4676	-199.602	69.8791	-93.3758	-198.892	83.5768	-117.437	-224.973	40.525	-66.3815	-227.877	52.2972	-91.996	-229.384	62.8777	-117.799	-245.271	16.9237	-61.3997	-256.293	22.0963	-82.0493	-259.261	38.4375	-98.8964	-230.63	19.065	-12.6226	-236.996	15.5224	14.763	-200.692	28.3388	4.86898	
66	0.55	-163.029	0.769604	9.37212	-138.057	1.46049	-7.70413	-117.127	3.7731	-35.0138	-100.514	3.16068	-54.3623	-172.7	43.3265	-58.7215	-164.726	53.6823	-86.6446	-157.851	61.6014	-113.985	-200.034	53.3785	-66.1815	-194.393	65.9187	-89.3214	-194.913	82.1636	-120.479	-226.049	43.0401	-63.5174	-230.269	56.5492	-86.7619	-226.912	67.466	-110.978	-248.42	20.156	-51.9511	-255.671	31.7271	-74.8673	-266.489	46.666	-89.9835	-228.305	22.6195	-10.063	-232.632	16.1003	16.9191	-195.818	26.8085	5.56383	
67	0.558333	-162.173	-3.44764	7.43668	-140.103	-3.77451	-10.4021	-116.23	0.968548	-36.9871	-104.208	0.752725	-58.679	-175.835	39.2763	-62.3004	-166.569	48.7018	-87.5831	-160.232	59.0648	-112.969	-200.498	49.0676	-66.4055	-196.715	64.1375	-94.0718	-196.866	78.5889	-119.507	-226.307	43.6905	-60.9982	-228.627	58.688	-86.8676	-227.168	71.0979	-111.174	-251.535	26.605	-51.4474	-260.575	39.6294	-71.1983	-265.946	56.9123	-88.0514	-227.869	24.4713	-9.03678	-227.82	16.8835	17.8409	-192.696	23.1334	3.41641	
68	0.566667	-162.301	-7.31426	6.15322	-139.313	-5.96461	-12.7402	-121.104	-1.67618	-37.7442	-103.129	-1.66294	-58.1012	-175.148	39.4362	-65.4556	-168.836	51.7232	-92.0615	-167.661	61.0627	-114.713	-201.959	50.2083	-66.241	-200.994	62.9161	-92.2112	-197.463	78.2541	-118.451	-226.403	43.2884	-59.2466	-231.218	57.5446	-84.3568	-234.728	70.364	-107.7	-255.056	27.1971	-47.6952	-261.445	40.7314	-69.3285	-266.319	55.8459	-85.9859	-226.385	25.1144	-11.3806	-228.382	18.4714	20.9437	-193.046	20.9034	1.25746	
